<svg width="21" height="18" viewBox="0 0 21 18" fill="none" xmlns="http://www.w3.org/2000/svg">
<path d="M1.38623 8.09089C0.737714 8.09089 0.211988 8.61662 0.211988 9.26514C0.211988 9.91365 0.737714 10.4394 1.38623 10.4394V8.09089ZM19.8302 10.0955C20.2888 9.63688 20.2888 8.89339 19.8302 8.43482L12.3574 0.961989C11.8988 0.503419 11.1553 0.503419 10.6967 0.961989C10.2382 1.42056 10.2382 2.16405 10.6967 2.62262L17.3392 9.26514L10.6967 15.9077C10.2382 16.3662 10.2382 17.1097 10.6967 17.5683C11.1553 18.0269 11.8988 18.0269 12.3574 17.5683L19.8302 10.0955ZM1.38623 10.4394H18.9999V8.09089H1.38623V10.4394Z" fill="white"/>
</svg>
