<?xml version="1.0" encoding="UTF-8"?>
<!DOCTYPE svg PUBLIC "-//W3C//DTD SVG 1.1//EN" "http://www.w3.org/Graphics/SVG/1.1/DTD/svg11.dtd">
<!-- Creator: CorelDRAW 2020 (64-Bit) -->
<svg xmlns="http://www.w3.org/2000/svg" xml:space="preserve" width="86.3423mm" height="81.1519mm" version="1.1" style="shape-rendering:geometricPrecision; text-rendering:geometricPrecision; image-rendering:optimizeQuality; fill-rule:evenodd; clip-rule:evenodd"
viewBox="0 0 4803.97 4515.18"
 xmlns:xlink="http://www.w3.org/1999/xlink"
 xmlns:xodm="http://www.corel.com/coreldraw/odm/2003">
 <defs>
  <style type="text/css">
   <![CDATA[
    .fil0 {fill:#DBDBDB}
   ]]>
  </style>
 </defs>
 <g id="Слой_x0020_1">
  <metadata id="CorelCorpID_0Corel-Layer"/>
  <path class="fil0" d="M3265.99 3411.89c96.64,35.55 878.8,845.62 1009.82,981.62 272.69,283.05 565.76,15.94 524.19,-229.48 -23.11,-136.42 -366.53,-429.94 -468.98,-532.4l-669.96 -662.45c51.27,-228.36 420.36,-686.35 188.97,-1526.59 -421.87,-1531.87 -2392.87,-1954.94 -3411.62,-726.24 -724.39,873.67 -494.18,2127.15 274.52,2764.5 37.23,30.87 98.83,72.49 136.88,99.22 527.15,370.34 1244.71,446.37 1847.57,200.19 207.13,-84.58 460.47,-234.77 568.62,-368.38zm-1465.32 -2812.52c-706.34,93.07 -1308.38,707.75 -1205.45,1528.17 87.49,697.35 719.58,1298.04 1528.88,1196.51 697.35,-87.49 1298.04,-719.57 1196.51,-1528.87 -86.89,-692.5 -721.5,-1301 -1519.94,-1195.81z"/>
 </g>
</svg>
