<?xml version="1.0" encoding="UTF-8"?>
<!DOCTYPE svg PUBLIC "-//W3C//DTD SVG 1.1//EN" "http://www.w3.org/Graphics/SVG/1.1/DTD/svg11.dtd">
<!-- Creator: CorelDRAW 2020 (64-Bit) -->
<svg xmlns="http://www.w3.org/2000/svg" xml:space="preserve" width="86.3423mm" height="81.1519mm" version="1.1" style="shape-rendering:geometricPrecision; text-rendering:geometricPrecision; image-rendering:optimizeQuality; fill-rule:evenodd; clip-rule:evenodd"
viewBox="0 0 2551.98 2398.57"
 xmlns:xlink="http://www.w3.org/1999/xlink"
 xmlns:xodm="http://www.corel.com/coreldraw/odm/2003">
 <defs>
  <style type="text/css">
   <![CDATA[
    .fil0 {fill:#9A9A9A}
   ]]>
  </style>
 </defs>
 <g id="Слой_x0020_1">
  <metadata id="CorelCorpID_0Corel-Layer"/>
  <path class="fil0" d="M1734.97 1812.47c51.34,18.89 466.84,449.22 536.44,521.46 144.86,150.36 300.55,8.47 278.46,-121.9 -12.27,-72.47 -194.71,-228.39 -249.14,-282.82l-355.9 -351.91c27.23,-121.31 223.31,-364.6 100.38,-810.96 -224.11,-813.77 -1271.15,-1038.51 -1812.33,-385.8 -384.81,464.11 -262.52,1129.99 145.83,1468.57 19.78,16.4 52.5,38.51 72.71,52.71 280.04,196.73 661.22,237.12 981.47,106.34 110.03,-44.93 244.61,-124.71 302.07,-195.69zm-778.41 -1494.08c-375.22,49.44 -695.04,375.97 -640.36,811.8 46.48,370.45 382.26,689.55 812.18,635.61 370.45,-46.48 689.55,-382.26 635.61,-812.17 -46.16,-367.87 -383.28,-691.12 -807.43,-635.24z"/>
 </g>
</svg>
