<svg width="40" height="40" viewBox="0 0 40 40" fill="none" xmlns="http://www.w3.org/2000/svg">
<g clip-path="url(#clip0)">
<path d="M36.462 15.9752C36.1991 7.12165 28.9158 0 19.9996 0C11.0834 0 3.80007 7.12165 3.53709 15.9752L2.35254 17.1598V25.1932L3.52901 26.3696V31.8431C3.52901 35.0435 6.13262 37.6471 9.33293 37.6471H10.7902C11.2758 39.0164 12.5835 40 14.1172 40H16.4702C18.0049 40 19.3133 39.015 19.7982 37.6442C19.8654 37.6454 19.9328 37.6471 19.9996 37.6471C25.681 37.6471 30.4347 33.5987 31.5278 28.2353H34.6045L37.6467 25.1932V17.1598L36.462 15.9752ZM19.9996 2.35294C26.9824 2.35294 32.7965 7.44933 33.9201 14.1176H31.5278C30.4347 8.7542 25.681 4.70588 19.9996 4.70588C14.3182 4.70588 9.56446 8.7542 8.47144 14.1176H6.07913C7.20266 7.44933 13.0168 2.35294 19.9996 2.35294ZM29.1136 14.1176C25.3105 14.1063 22.6242 14.3379 20.4095 11.1004L19.334 9.52839L18.4098 11.1938C17.0631 13.6204 15.2496 14.1176 12.9408 14.1176H10.8856C11.9331 10.0629 15.6221 7.05882 19.9996 7.05882C24.3771 7.05882 28.0661 10.0629 29.1136 14.1176ZM8.23489 25.8824H6.36925L4.70548 24.2186V18.1344L6.36925 16.4706H8.23489V25.8824ZM5.88195 31.8431V28.2353H8.46917C8.91207 30.4294 9.97176 32.4435 11.5416 34.0611C11.2125 34.4127 10.9544 34.8311 10.7902 35.2941H9.33293C7.43003 35.2941 5.88195 33.746 5.88195 31.8431ZM16.4702 37.6471H14.1172C13.4685 37.6471 12.9408 37.1194 12.9408 36.4706C12.9408 35.8219 13.4685 35.2941 14.1172 35.2941H16.4702C17.1189 35.2941 17.6467 35.8219 17.6467 36.4706C17.6467 37.1194 17.1189 37.6471 16.4702 37.6471ZM29.4114 25.8824C29.4114 31.072 25.1892 35.2941 19.9996 35.2941C19.9321 35.2941 19.8641 35.2928 19.7962 35.2912C19.3098 33.9234 18.0028 32.9412 16.4702 32.9412C14.0545 32.9465 14.093 32.9291 13.7919 32.9568C11.7494 31.1665 10.5878 28.6166 10.5878 25.8824V16.4706H12.9408C15.0229 16.4706 17.5586 16.1273 19.5214 13.7384C22.1112 16.4524 25.2761 16.4706 28.1171 16.4706H29.4114V25.8824ZM35.2937 24.2186L33.63 25.8824H31.7643V16.4706H33.63L35.2937 18.1344V24.2186Z" fill="#3A3A3A"/>
</g>
<defs>
<clipPath id="clip0">
<rect width="40" height="40" fill="white"/>
</clipPath>
</defs>
</svg>
